<?xml version="1.0" encoding="UTF-8"?>
<svg width="322px" height="315px" viewBox="0 0 322 315" version="1.1" xmlns="http://www.w3.org/2000/svg" xmlns:xlink="http://www.w3.org/1999/xlink">
    <!-- Generator: Sketch 3.8.1 (29687) - http://www.bohemiancoding.com/sketch -->
    <title>logo_final</title>
    <desc>Created with Sketch.</desc>
    <defs>
        <radialGradient cx="50%" cy="0%" fx="50%" fy="0%" r="136.066772%" id="radialGradient-1">
            <stop stop-color="#FFFFFF" offset="0%"></stop>
            <stop stop-color="#000000" offset="100%"></stop>
        </radialGradient>
        <linearGradient x1="50%" y1="0%" x2="50%" y2="100%" id="linearGradient-2">
            <stop stop-color="#A451D5" offset="0%"></stop>
            <stop stop-color="#F4EFF8" offset="100%"></stop>
        </linearGradient>
        <radialGradient cx="50%" cy="94.855479%" fx="50%" fy="94.855479%" r="37.9815026%" id="radialGradient-3">
            <stop stop-color="#B3DD91" offset="0%"></stop>
            <stop stop-color="#8EB966" offset="100%"></stop>
        </radialGradient>
    </defs>
    <g id="Page-1" stroke="none" stroke-width="1" fill="none" fill-rule="evenodd">
        <g id="A4-Copy" transform="translate(-137.000000, -421.000000)">
            <g id="logo_final" transform="translate(137.000000, 421.000000)">
                <ellipse id="Oval-32" fill="url(#radialGradient-1)" cx="294.88141" cy="78.8047753" rx="2.2275641" ry="2.2261236"></ellipse>
                <ellipse id="Oval-32-Copy" fill="url(#radialGradient-1)" cx="160.663462" cy="2.2261236" rx="2.2275641" ry="2.2261236"></ellipse>
                <ellipse id="Oval-32-Copy-9" fill="url(#radialGradient-1)" cx="200.663462" cy="7.2261236" rx="2.2275641" ry="2.2261236"></ellipse>
                <ellipse id="Oval-32-Copy-10" fill="url(#radialGradient-1)" cx="179.935897" cy="2.49902999" rx="1.5" ry="1.49902999"></ellipse>
                <ellipse id="Oval-32-Copy-11" fill="url(#radialGradient-1)" cx="218.935897" cy="12.49903" rx="1.5" ry="1.49902999"></ellipse>
                <ellipse id="Oval-32-Copy-24" fill="url(#radialGradient-1)" cx="253.935897" cy="32.49903" rx="1.5" ry="1.49902999"></ellipse>
                <ellipse id="Oval-32-Copy-25" fill="url(#radialGradient-1)" cx="284.935897" cy="63.49903" rx="1.5" ry="1.49902999"></ellipse>
                <ellipse id="Oval-32-Copy-26" fill="url(#radialGradient-1)" cx="303.935897" cy="96.49903" rx="1.5" ry="1.49902999"></ellipse>
                <ellipse id="Oval-32-Copy-27" fill="url(#radialGradient-1)" cx="314.935897" cy="138.49903" rx="1.5" ry="1.49902999"></ellipse>
                <ellipse id="Oval-32-Copy-30" fill="url(#radialGradient-1)" cx="285.935897" cy="249.49903" rx="1.5" ry="1.49902999"></ellipse>
                <ellipse id="Oval-32-Copy-31" fill="url(#radialGradient-1)" cx="256.935897" cy="278.49903" rx="1.5" ry="1.49902999"></ellipse>
                <ellipse id="Oval-32-Copy-32" fill="url(#radialGradient-1)" cx="218.935897" cy="300.49903" rx="1.5" ry="1.49902999"></ellipse>
                <ellipse id="Oval-32-Copy-33" fill="url(#radialGradient-1)" cx="179.935897" cy="310.49903" rx="1.5" ry="1.49902999"></ellipse>
                <ellipse id="Oval-32-Copy-34" fill="url(#radialGradient-1)" cx="141.935897" cy="310.49903" rx="1.5" ry="1.49902999"></ellipse>
                <ellipse id="Oval-32-Copy-35" fill="url(#radialGradient-1)" cx="102.935897" cy="300.49903" rx="1.5" ry="1.49902999"></ellipse>
                <ellipse id="Oval-32-Copy-36" fill="url(#radialGradient-1)" cx="67.9358974" cy="280.49903" rx="1.5" ry="1.49902999"></ellipse>
                <ellipse id="Oval-32-Copy-37" fill="url(#radialGradient-1)" cx="36.9358974" cy="250.49903" rx="1.5" ry="1.49902999"></ellipse>
                <ellipse id="Oval-32-Copy-40" fill="url(#radialGradient-1)" cx="6.93589744" cy="135.49903" rx="1.5" ry="1.49902999"></ellipse>
                <ellipse id="Oval-32-Copy-41" fill="url(#radialGradient-1)" cx="16.9358974" cy="98.49903" rx="1.5" ry="1.49902999"></ellipse>
                <ellipse id="Oval-32-Copy-42" fill="url(#radialGradient-1)" cx="36.9358974" cy="63.49903" rx="1.5" ry="1.49902999"></ellipse>
                <ellipse id="Oval-32-Copy-43" fill="url(#radialGradient-1)" cx="65.9358974" cy="34.49903" rx="1.5" ry="1.49902999"></ellipse>
                <ellipse id="Oval-32-Copy-12" fill="url(#radialGradient-1)" cx="141.935897" cy="2.49902999" rx="1.5" ry="1.49902999"></ellipse>
                <ellipse id="Oval-32-Copy-13" fill="url(#radialGradient-1)" cx="102.935897" cy="12.49903" rx="1.5" ry="1.49902999"></ellipse>
                <ellipse id="Oval-32-Copy" fill="url(#radialGradient-1)" cx="237.663462" cy="22.2261236" rx="2.2275641" ry="2.2261236"></ellipse>
                <ellipse id="Oval-32-Copy" fill="url(#radialGradient-1)" cx="83.6634615" cy="22.2261236" rx="2.2275641" ry="2.2261236"></ellipse>
                <ellipse id="Oval-32-Copy-14" fill="url(#radialGradient-1)" cx="51.6634615" cy="47.2261236" rx="2.2275641" ry="2.2261236"></ellipse>
                <ellipse id="Oval-32-Copy-15" fill="url(#radialGradient-1)" cx="11.6634615" cy="117.226124" rx="2.2275641" ry="2.2261236"></ellipse>
                <ellipse id="Oval-32-Copy-8" fill="url(#radialGradient-1)" cx="120.663462" cy="7.2261236" rx="2.2275641" ry="2.2261236"></ellipse>
                <ellipse id="Oval-32-Copy-2" fill="url(#radialGradient-1)" cx="27.2275641" cy="78.8047753" rx="2.2275641" ry="2.2261236"></ellipse>
                <ellipse id="Oval-32-Copy-3" fill="url(#radialGradient-1)" cx="26.0096154" cy="237.085674" rx="2.2275641" ry="2.2261236"></ellipse>
                <ellipse id="Oval-32-Copy-4" fill="url(#radialGradient-1)" cx="160.445513" cy="311.883427" rx="2.2275641" ry="2.2261236"></ellipse>
                <ellipse id="Oval-32-Copy" fill="url(#radialGradient-1)" cx="83.2275641" cy="290.226124" rx="2.2275641" ry="2.2261236"></ellipse>
                <ellipse id="Oval-32-Copy" fill="url(#radialGradient-1)" cx="5.66346154" cy="155.226124" rx="2.2275641" ry="2.2261236"></ellipse>
                <ellipse id="Oval-32-Copy-17" fill="url(#radialGradient-1)" cx="51.6634615" cy="267.226124" rx="2.2275641" ry="2.2261236"></ellipse>
                <ellipse id="Oval-32-Copy-18" fill="url(#radialGradient-1)" cx="121.663462" cy="307.226124" rx="2.2275641" ry="2.2261236"></ellipse>
                <ellipse id="Oval-32-Copy-19" fill="url(#radialGradient-1)" cx="201.663462" cy="306.226124" rx="2.2275641" ry="2.2261236"></ellipse>
                <ellipse id="Oval-32-Copy-20" fill="url(#radialGradient-1)" cx="271.663462" cy="266.226124" rx="2.2275641" ry="2.2261236"></ellipse>
                <ellipse id="Oval-32-Copy-22" fill="url(#radialGradient-1)" cx="310.663462" cy="117.226124" rx="2.2275641" ry="2.2261236"></ellipse>
                <ellipse id="Oval-32-Copy-23" fill="url(#radialGradient-1)" cx="270.663462" cy="47.2261236" rx="2.2275641" ry="2.2261236"></ellipse>
                <ellipse id="Oval-32-Copy-5" fill="url(#radialGradient-1)" cx="295.099359" cy="236.085674" rx="2.2275641" ry="2.2261236"></ellipse>
                <ellipse id="Oval-32-Copy" fill="url(#radialGradient-1)" cx="316.227564" cy="156.226124" rx="2.2275641" ry="2.2261236"></ellipse>
                <ellipse id="Oval-32-Copy" fill="url(#radialGradient-1)" cx="239.227564" cy="290.226124" rx="2.2275641" ry="2.2261236"></ellipse>
                <ellipse id="Oval-32-Copy" fill="url(#radialGradient-1)" cx="223" cy="264.998707" rx="2" ry="1.99870665"></ellipse>
                <ellipse id="Oval-32-Copy-6" fill="url(#radialGradient-1)" cx="218.75" cy="256.748868" rx="1.75" ry="1.74886832"></ellipse>
                <ellipse id="Oval-32-Copy-7" fill="url(#radialGradient-1)" cx="213.4" cy="247.399095" rx="1.39999998" ry="1.39909463"></ellipse>
                <path d="M96.6589734,265.645821 C97.2112582,266.602406 98.4339375,266.930446 99.3899041,266.378518 C100.345871,265.826591 100.67312,264.6037 100.120835,263.647114 C99.5685501,262.690529 98.3458708,262.362489 97.3899041,262.914417 C96.4339375,263.466344 96.1066887,264.689236 96.6589734,265.645821 L96.6589734,265.645821 Z" id="Oval-32-Copy" fill="url(#radialGradient-1)"></path>
                <path d="M101.894909,257.715375 C102.378158,258.552387 103.448003,258.839422 104.284474,258.356485 C105.120945,257.873548 105.407287,256.803518 104.924038,255.966506 C104.440789,255.129494 103.370945,254.842459 102.534474,255.325396 C101.698003,255.808333 101.41166,256.878363 101.894909,257.715375 L101.894909,257.715375 Z" id="Oval-32-Copy-6" fill="url(#radialGradient-1)"></path>
                <path d="M107.619964,248.232365 C108.006563,248.901975 108.862439,249.131603 109.531615,248.745253 C110.200792,248.358904 110.429866,247.50288 110.043267,246.83327 C109.656667,246.163661 108.800792,245.934033 108.131615,246.320382 C107.462439,246.706732 107.233364,247.562755 107.619964,248.232365 L107.619964,248.232365 Z" id="Oval-32-Copy-7" fill="url(#radialGradient-1)"></path>
                <path d="M225.341027,48.354179 C224.788742,47.3975938 223.566063,47.0695539 222.610096,47.6214815 C221.654129,48.1734092 221.32688,49.3963004 221.879165,50.3528857 C222.43145,51.3094709 223.654129,51.6375108 224.610096,51.0855832 C225.566063,50.5336556 225.893311,49.3107643 225.341027,48.354179 L225.341027,48.354179 Z" id="Oval-32-Copy" fill="url(#radialGradient-1)"></path>
                <path d="M220.105091,56.2846253 C219.621842,55.4476132 218.551997,55.1605784 217.715526,55.643515 C216.879055,56.1264517 216.592713,57.1964816 217.075962,58.0334936 C217.559211,58.8705057 218.629055,59.1575406 219.465526,58.6746039 C220.301997,58.1916673 220.58834,57.1216374 220.105091,56.2846253 L220.105091,56.2846253 Z" id="Oval-32-Copy-6" fill="url(#radialGradient-1)"></path>
                <path d="M214.380036,65.7676349 C213.993437,65.0980253 213.137561,64.8683974 212.468385,65.2547467 C211.799208,65.641096 211.570134,66.4971199 211.956733,67.1667296 C212.343333,67.8363392 213.199208,68.0659671 213.868385,67.6796178 C214.537561,67.2932685 214.766636,66.4372446 214.380036,65.7676349 L214.380036,65.7676349 Z" id="Oval-32-Copy-7" fill="url(#radialGradient-1)"></path>
                <path d="M99,47.0025867 C97.8954305,47.0025867 97,47.8974381 97,49.0012933 C97,50.1051486 97.8954305,51 99,51 C100.104569,51 101,50.1051486 101,49.0012933 C101,47.8974381 100.104569,47.0025867 99,47.0025867 L99,47.0025867 Z" id="Oval-32-Copy" fill="url(#radialGradient-1)"></path>
                <path d="M103.25,55.5022634 C102.283502,55.5022634 101.5,56.2852584 101.5,57.2511317 C101.5,58.217005 102.283502,59 103.25,59 C104.216498,59 105,58.217005 105,57.2511317 C105,56.2852584 104.216498,55.5022634 103.25,55.5022634 L103.25,55.5022634 Z" id="Oval-32-Copy-6" fill="url(#radialGradient-1)"></path>
                <path d="M108.6,65.2018107 C107.826801,65.2018107 107.2,65.8282067 107.2,66.6009054 C107.2,67.373604 107.826801,68 108.6,68 C109.373199,68 110,67.373604 110,66.6009054 C110,65.8282067 109.373199,65.2018107 108.6,65.2018107 L108.6,65.2018107 Z" id="Oval-32-Copy-7" fill="url(#radialGradient-1)"></path>
                <path d="M34.1589734,155.148408 C33.6066887,156.104993 33.9339375,157.327884 34.8899041,157.879812 C35.8458708,158.431739 37.0685501,158.1037 37.6208349,157.147114 C38.1731196,156.190529 37.8458708,154.967638 36.8899041,154.41571 C35.9339375,153.863783 34.7112582,154.191822 34.1589734,155.148408 L34.1589734,155.148408 Z" id="Oval-32-Copy" fill="url(#radialGradient-1)"></path>
                <path d="M43.6449093,155.717638 C43.1616602,156.55465 43.4480029,157.62468 44.2844737,158.107617 C45.1209445,158.590553 46.1907889,158.303518 46.6740381,157.466506 C47.1572873,156.629494 46.8709445,155.559464 46.0344737,155.076528 C45.1980029,154.593591 44.1281585,154.880626 43.6449093,155.717638 L43.6449093,155.717638 Z" id="Oval-32-Copy-6" fill="url(#radialGradient-1)"></path>
                <path d="M54.7199638,155.934176 C54.3333644,156.603785 54.5624386,157.459809 55.2316153,157.846159 C55.9007919,158.232508 56.7566674,158.00288 57.1432668,157.33327 C57.5298661,156.663661 57.3007919,155.807637 56.6316152,155.421288 C55.9624386,155.034938 55.1065631,155.264566 54.7199638,155.934176 L54.7199638,155.934176 Z" id="Oval-32-Copy-7" fill="url(#radialGradient-1)"></path>
                <path d="M287.841027,157.851592 C288.393311,156.895007 288.066063,155.672116 287.110096,155.120188 C286.154129,154.568261 284.93145,154.8963 284.379165,155.852886 C283.82688,156.809471 284.154129,158.032362 285.110096,158.58429 C286.066063,159.136217 287.288742,158.808178 287.841027,157.851592 L287.841027,157.851592 Z" id="Oval-32-Copy" fill="url(#radialGradient-1)"></path>
                <path d="M278.355091,157.282362 C278.83834,156.44535 278.551997,155.37532 277.715526,154.892383 C276.879055,154.409447 275.809211,154.696482 275.325962,155.533494 C274.842713,156.370506 275.129055,157.440536 275.965526,157.923472 C276.801997,158.406409 277.871842,158.119374 278.355091,157.282362 L278.355091,157.282362 Z" id="Oval-32-Copy-6" fill="url(#radialGradient-1)"></path>
                <path d="M267.280036,157.065824 C267.666636,156.396215 267.437561,155.540191 266.768385,155.153841 C266.099208,154.767492 265.243333,154.99712 264.856733,155.66673 C264.470134,156.336339 264.699208,157.192363 265.368385,157.578712 C266.037561,157.965062 266.893437,157.735434 267.280036,157.065824 L267.280036,157.065824 Z" id="Oval-32-Copy-7" fill="url(#radialGradient-1)"></path>
                <path d="M290.238042,230.745952 C290.232032,230.745952 290.232032,230.745952 290.226021,230.745952 C236.36402,230.745952 187.518433,201.987521 161.032551,156.261124 L160.59989,156.511733 L160.599929,157.011733 C160.605944,157.011732 160.605944,157.011732 160.611958,157.011732 C214.473956,157.011732 263.31954,185.770159 289.805424,231.496551 L290.238082,231.245952 L290.238042,230.745952 L290.238042,230.745952 Z M290.238121,231.745952 L291.105474,231.745883 L290.670743,230.995343 C264.007778,184.963217 214.834289,156.011732 160.611958,156.011732 C160.605904,156.011732 160.605904,156.011732 160.599851,156.011733 L159.732497,156.011801 L160.167229,156.762341 C186.830195,202.794463 236.003687,231.745952 290.226021,231.745952 C290.232071,231.745952 290.232071,231.745952 290.238121,231.745952 L290.238121,231.745952 Z" id="Combined-Shape" fill="#AC62DA"></path>
                <path d="M160.184712,156.261124 C133.69883,201.987521 84.8532424,230.745952 30.9912409,230.745952 L31.4239247,231.496521 C57.9038093,185.770917 106.749192,157.011732 160.611958,157.011732 L160.617364,157.011732 L160.617373,156.511732 L160.184712,156.261124 L160.184712,156.261124 Z M161.050034,156.76234 L161.484796,156.011747 L160.617382,156.011732 L160.611967,156.011732 C106.388839,156.011732 57.2155203,184.963999 30.5585572,230.995383 L30.1238997,231.745952 L30.9912409,231.745952 C85.2135756,231.745952 134.387068,202.794463 161.050034,156.76234 L161.050034,156.76234 Z" id="Combined-Shape" fill="#AC62DA"></path>
                <path d="M161.037947,306.286685 C174.140002,283.670492 181.139593,257.977577 181.139593,231.265892 C181.139593,204.554207 174.140002,178.861292 161.037947,156.245099 L160.605304,155.498289 L160.172661,156.245099 C147.070607,178.861292 140.071016,204.554207 140.071016,231.265892 C140.071016,257.977577 147.070607,283.670492 160.172661,306.286685 L160.605304,307.033494 L161.037947,306.286685 L161.037947,306.286685 Z M160.172661,305.785406 L161.037947,305.785406 C148.02355,283.320523 141.071016,257.800337 141.071016,231.265892 C141.071016,204.731446 148.02355,179.211261 161.037947,156.746378 L160.172661,156.746378 C173.187059,179.211261 180.139593,204.731446 180.139593,231.265892 C180.139593,257.800337 173.187059,283.320523 160.172661,305.785406 L160.172661,305.785406 Z" id="Combined-Shape" fill="#AC62DA"></path>
                <path d="M160.608631,6.97502967 C147.86506,28.9701704 140.571016,54.509651 140.571016,81.7509258 C140.571016,108.992201 147.86506,134.531681 160.608631,156.526822 C173.352202,134.531681 180.646247,108.992201 180.646247,81.7509258 C180.646247,54.509651 173.352202,28.9701704 160.608631,6.97502967 L160.608631,6.97502967 Z" id="Combined-Shape" fill="url(#linearGradient-2)"></path>
                <path d="M30.9858262,81.7708655 C56.8635822,126.447367 105.22325,156.504637 160.610719,156.505085 C134.732963,111.828584 86.3732954,81.7713138 30.9858262,81.7708655 L30.9858262,81.7708655 Z" id="Combined-Shape" fill="url(#linearGradient-2)"></path>
                <path d="M290.23809,81.770866 C264.360141,126.447701 215.999945,156.505085 160.611958,156.505085 C160.607938,156.505085 160.603918,156.505085 160.599898,156.505085 C186.477845,111.828246 234.838038,81.7708655 290.226021,81.7708655 C290.230044,81.7708655 290.234067,81.7708657 290.23809,81.770866 L290.23809,81.770866 Z" id="Combined-Shape" fill="url(#linearGradient-2)"></path>
                <path d="M208.766103,240.185816 C178.677154,222.813953 160.766807,190.81858 160.880003,156.450662 L160.130006,156.882028 C190.224744,174.257233 208.136057,206.252093 208.02286,240.621074 L208.522858,240.622721 L208.77252,240.189514 L208.765766,240.185621 L208.766103,240.185816 Z M208.266441,241.052036 L208.273195,241.055928 L209.020016,241.48633 L209.022855,240.624368 C209.137218,205.90128 191.039074,173.572686 160.630006,156.016003 L159.88285,155.584632 L159.880008,156.447369 C159.765646,191.169382 177.862813,223.498494 208.266103,241.051841 L208.266441,241.052036 Z" id="Combined-Shape" fill="#8FB96A"></path>
                <path d="M111.791031,241.482219 C126.537417,232.904927 138.869148,220.60857 147.609678,205.46953 C156.350207,190.330489 160.833298,173.502718 160.888258,156.443326 L160.891069,155.570826 L160.136867,156.009511 C145.390481,164.586803 133.058749,176.883159 124.31822,192.0222 C115.577691,207.161241 111.094599,223.989012 111.039639,241.048403 L111.036828,241.920904 L111.791031,241.482219 L111.791031,241.482219 Z M111.288243,240.617809 L112.039634,241.051625 C112.094036,224.165638 116.531469,207.509248 125.184245,192.5222 C133.837021,177.535153 146.043162,165.364027 160.639654,156.873921 L159.888263,156.440105 C159.833862,173.326091 155.396428,189.982482 146.743652,204.96953 C138.090876,219.956577 125.884736,232.127703 111.288243,240.617809 L111.288243,240.617809 Z" id="Combined-Shape" fill="#8FB96A"></path>
                <path d="M209.232344,71.8455811 C194.915168,80.1723746 182.490174,92.2654191 173.591578,107.67824 C164.692982,123.09106 160.432596,139.897943 160.379969,156.460377 C174.697145,148.133584 187.122139,136.040539 196.020735,120.627719 C204.919331,105.214899 209.179718,88.4080159 209.232344,71.8455811 L209.232344,71.8455811 Z" id="Combined-Shape" fill="url(#radialGradient-3)"></path>
                <path d="M112.252834,72.279341 C112.142037,105.918685 129.389331,138.551189 160.388238,156.448754 C160.499034,122.80941 143.25174,90.1769061 112.252834,72.279341 L112.252834,72.279341 Z" id="Combined-Shape" fill="url(#radialGradient-3)"></path>
                <path d="M160.38979,156.454665 C131.312445,173.370415 94.4278878,174.749967 63.4285452,156.852488 C92.5028647,139.934987 129.387419,138.555437 160.38676,156.452915 L160.38979,156.454665 Z" id="Combined-Shape" fill="url(#radialGradient-3)"></path>
                <path d="M257.350176,156.051331 C228.272831,172.967082 191.388274,174.346633 160.388931,156.449154 C189.459527,139.529504 226.344082,138.149954 257.343422,156.047431 L257.350176,156.051331 Z" id="Combined-Shape" fill="url(#radialGradient-3)"></path>
                <path d="M157.750695,203.381008 C155.707577,202.613219 154.080395,201.493528 152.512633,201.56665 C151.177978,201.630633 149.500518,202.786886 148.70521,203.952279 C147.781922,205.318759 148.398971,206.996012 149.94388,207.992309 C151.56192,209.043448 153.143394,208.810369 154.436912,207.48959 C155.515606,206.383609 156.393187,205.085681 157.750695,203.381008 L157.750695,203.381008 L157.750695,203.381008 L157.750695,203.381008 Z M137.671456,179.099697 C139.842555,175.443561 142.54843,174.022239 146.246155,174.06794 C156.594299,174.205046 166.947014,174.195905 177.295159,174.259888 C177.893925,174.264458 178.48812,174.410703 179.251433,174.515817 C179.251433,178.057698 179.22858,181.535597 179.256004,185.013496 C179.301711,191.5854 179.205726,198.166444 179.562243,204.724637 C179.649087,206.232793 181.006595,208.161405 182.345821,208.988606 C184.059847,210.048885 185.961272,208.84236 187.186229,207.357055 C189.67728,204.340743 192.031209,201.201037 194.709659,198.107032 C194.225161,199.372969 193.827507,200.684608 193.237883,201.900273 C190.659988,207.21538 187.135951,211.493058 181.03402,212.955513 C178.675521,213.517644 176.568412,213.106328 175.165196,211.150296 C174.159634,209.751824 173.26377,210.035174 172.061667,210.574454 C170.393349,211.333103 168.72503,212.142023 166.988151,212.708724 C163.614948,213.805564 162.083752,213.188591 160.08177,210.204271 C159.455579,209.271956 158.856813,208.325931 158.066076,207.119406 C156.964529,207.960317 156.086948,208.83322 155.04482,209.38164 C152.508062,210.706989 149.980445,212.178584 147.27,212.973793 C146.086179,213.316556 143.992782,212.525917 143.174621,211.54333 C142.466157,210.688709 142.402167,208.435615 143.051211,207.48959 C144.655539,205.158804 146.698658,203.074806 148.82405,201.182756 C150.231836,199.93053 152.087554,199.181022 153.714736,198.216716 C152.156115,192.234364 149.980445,191.082681 142.690123,192.307487 C142.584996,192.097259 142.475298,191.887031 142.370172,191.681374 C145.619964,190.145797 148.773771,188.331439 152.151545,187.184327 C154.276937,186.46224 155.968108,188.107501 156.987382,190.013262 C159.094491,193.952748 161.119327,197.942506 163.208153,201.891132 C164.030885,203.44042 164.702783,205.163374 165.868321,206.40189 C166.992722,207.594704 168.569625,208.591001 170.132817,209.075439 C172.002247,209.65585 173.391751,208.714395 173.496878,206.534425 C173.592863,204.432147 173.725414,202.334439 173.739127,200.232161 C173.771122,194.350353 173.75741,188.468545 173.75741,182.591307 C173.75741,179.081416 173.75741,179.072276 170.370495,179.076846 C160.45657,179.081416 150.547217,179.090557 140.637863,179.099697 L137.671456,179.099697 L137.671456,179.099697 L137.671456,179.099697 Z" id="Combined-Shape" fill="#3B4E31"></path>
                <path d="M66.9429865,203.452302 C65.0461314,202.689084 63.5880669,201.816182 62.0203048,201.546542 C60.1463034,201.217489 58.6013949,202.158944 57.9066432,204.028144 C57.2895939,205.714536 57.7878041,207.140429 59.3235711,208.104735 C60.9781772,209.146733 62.5413686,208.799401 63.8028915,207.43292 C64.8495898,206.304088 65.7226002,205.0153 66.9429865,203.452302 M78.5846488,191.981177 C79.9878645,187.7492 84.3757702,186.026246 89.3807252,187.74006 L89.3807252,194.896945 C91.4466975,193.279105 93.1241572,191.834931 94.9295976,190.582705 C96.5019305,189.485864 98.1291122,188.366173 99.8979867,187.680647 C104.377307,185.948553 108.440691,188.56269 109.021174,193.343087 C109.446252,196.816416 109.12173,200.239473 107.416846,203.287776 C105.57941,206.592009 103.344321,209.672303 101.022388,213.264456 C101.890827,208.392655 102.983233,204.306924 103.262048,200.16178 C103.577428,195.486497 101.493173,192.483895 98.42621,191.821221 C95.5466469,191.199678 92.7356448,193.142 90.8662141,197.479091 C89.9429256,199.61793 89.2710275,201.953287 88.9922127,204.261222 C88.3843049,209.256417 88.1831926,209.813978 83.4890476,212.907983 C83.3747792,211.998519 83.2696523,211.175889 83.137101,210.12932 C80.8517335,211.025073 78.7263416,211.993949 76.5186766,212.688615 C72.8483763,213.840297 71.3217507,213.200474 69.2100711,209.964794 C68.6433,209.096462 68.0856703,208.228129 67.3909185,207.15414 C65.9694199,208.209849 64.8175947,209.297549 63.4646571,210.015066 C61.2387091,211.185029 58.9670537,212.450966 56.5628471,213.008527 C55.3241778,213.296447 53.2947714,212.519519 52.4766099,211.523222 C51.7864289,210.68231 51.8824143,208.639445 52.3989074,207.460341 C54.131216,203.502574 57.6095454,201.167217 61.275275,199.238606 C62.9298811,198.370274 63.0807153,197.45624 62.4728076,195.911523 C61.1061578,192.419913 58.359146,190.939178 54.4603089,191.738958 C53.7152791,191.889773 52.9839615,192.100001 52.2480731,192.282808 C52.1475169,192.06344 52.0515315,191.844072 51.9555461,191.629274 C54.8579629,190.157679 57.6963894,188.526129 60.6856501,187.269332 C63.0395787,186.282175 64.8084532,187.735489 65.951137,189.62754 C67.7154407,192.543308 69.2512077,195.596181 70.869248,198.598782 C72.162766,200.984411 73.2734546,203.488864 74.768085,205.737387 C75.5953881,206.971333 76.9026183,208.109305 78.2509852,208.721708 C81.2585289,210.083618 83.2330865,208.698857 83.2787938,205.390054 C83.3382134,201.103235 83.292506,196.811846 83.292506,192.264527 C81.6378999,192.163984 80.1295573,192.07258 78.5846488,191.981177 L78.5846488,191.981177 L78.5846488,191.981177 Z" id="Combined-Shape" fill="#3B4E31"></path>
                <path d="M0.798964498,178.994583 C3.02948323,176.074245 4.93090904,174.259888 8.70176551,174.278168 C43.1833912,174.424414 77.6650169,174.32844 112.146643,174.301019 L114.797669,174.301019 C113.851527,177.468147 111.662145,178.971732 107.982703,178.976303 C98.0687785,178.999153 88.154854,178.976303 78.2409296,178.976303 C53.3212817,178.980873 28.4062046,178.990013 3.48198601,178.994583 L0.798964498,178.994583 Z" id="Fill-11" fill="#3B4E31"></path>
                <path d="M321.23035,174.40659 C320.201934,177.751954 318.702733,178.944768 315.736326,178.944768 C287.923403,178.967619 260.115051,178.97676 232.306698,178.99047 C227.598841,178.99504 222.890984,178.99047 217.817468,178.99047 C219.618337,175.864474 222.081964,174.493423 225.226629,174.40659 C229.258018,174.296906 233.293977,174.342608 237.329936,174.347178 C264.087019,174.365459 290.844103,174.388309 317.601186,174.40659 L321.23035,174.40659" id="Fill-13" fill="#3B4E31"></path>
                <path d="M7.44527043,213.444978 L7.44527043,191.992602 C5.86379608,191.901199 4.49257555,191.818936 3.10307207,191.736673 C4.01721909,188.226783 9.7717746,185.694909 12.8433086,187.436143 C13.2455333,187.664652 13.5380603,188.350177 13.6020506,188.862036 C13.7254605,189.803491 13.6340458,190.767797 13.6340458,192.230251 C14.6716026,191.686401 15.3252178,191.371059 15.9514085,191.010016 C17.5374536,190.095982 19.0503669,189.017422 20.704973,188.258774 C24.8186346,186.371294 27.2502657,187.061389 30.0292726,190.703814 C30.3446534,191.11513 30.6463219,191.531015 31.075971,192.111427 C32.3969134,191.348208 33.6492948,190.616981 34.906247,189.899465 C35.7426915,189.424167 36.5699946,188.921448 37.4384343,188.514703 C40.2631486,187.203065 43.1975605,186.613513 45.8622991,188.638098 C48.5773157,190.699244 49.0069648,193.797819 48.659589,196.946666 C47.9465543,203.322052 44.7104738,208.3858 40.2585778,212.713751 C41.1910078,209.231282 42.4068233,205.780804 42.9735945,202.225212 C43.4855168,199.039804 43.206702,195.726431 41.2184322,192.915776 C38.823367,189.542991 35.217057,189.629825 33.6538656,193.409355 C32.1820889,196.983227 31.1856686,200.83588 30.5640486,204.656542 C29.9927068,208.157292 28.6900472,210.881113 25.2391422,213.23475 C25.2391422,208.728563 25.3442691,204.738805 25.1934349,200.758187 C25.1111617,198.509664 25.0197469,196.096614 24.1467365,194.104021 C23.5251166,192.678128 21.705964,191.192823 20.2067629,190.923183 C19.0046595,190.708385 17.098663,191.978892 16.1753745,193.126004 C13.4375042,196.539921 12.7427524,200.863301 12.7656061,205.003875 C12.783889,208.998203 10.6219313,211.031928 7.44527043,213.444978" id="Fill-15" fill="#3B4E31"></path>
                <path d="M224.695967,192.09406 L218.955124,192.09406 C220.134373,189.12345 221.519306,187.002891 223.65841,186.984611 C226.085471,184.457307 227.936618,182.524125 229.796907,180.590943 C230.043727,180.709768 230.290547,180.828592 230.537367,180.947417 L230.537367,187.185698 L242.201883,187.185698 C239.660554,192.418542 235.432624,192.583068 230.797898,191.911253 C230.797898,196.709931 230.523654,201.234399 230.912167,205.708595 C231.113279,208.00282 233.288949,209.323599 235.647448,208.752328 C237.530591,208.295311 239.564568,207.46811 240.967784,206.183893 C244.153586,203.258984 246.685774,199.803936 247.119994,195.233766 C247.330247,193.044655 246.90974,191.586771 244.217577,192.09406 C243.646235,192.199174 243.020044,192.048358 242.402995,192.016367 C243.495401,188.031179 247.732472,186.395059 253.171647,187.898644 C253.171647,190.531062 253.212783,193.222892 253.162505,195.914722 C253.107657,198.537999 252.760281,201.170417 252.888261,203.784554 C253.098515,207.975399 251.247367,210.786053 247.353101,212.888331 L247.353101,201.645714 C247.138276,201.568021 246.918881,201.490328 246.699486,201.412636 C245.684783,202.925362 244.67008,204.442658 243.646235,205.955384 C241.146043,209.652651 237.932816,212.275928 233.362081,213.020866 C228.26114,213.848067 225.194177,211.654385 224.810235,206.490094 C224.581699,203.354958 224.718821,200.18783 224.695967,197.034413 C224.686826,195.475985 224.695967,193.917558 224.695967,192.09406" id="Fill-17" fill="#3B4E31"></path>
                <path d="M126.985077,208.073658 C131.555812,208.009675 135.555205,203.777698 134.823888,199.78337 C134.220551,196.492848 128.785947,190.478505 126.148633,190.734435 C121.838429,191.15032 121.148248,195.030394 119.859301,198.215802 C119.827306,198.298065 119.763316,198.371188 119.749603,198.458021 C119.100559,203.201857 121.4682,208.069087 126.985077,208.073658 M129.412137,173.029598 C128.973347,173.495755 128.552839,173.984763 128.086624,174.4235 C124.946529,177.39868 124.914534,178.975388 128.127761,182.023692 C130.161738,183.952303 132.319125,185.74838 134.394239,187.626719 C135.431796,188.568174 136.469352,189.52334 137.420065,190.547058 C140.770414,194.143781 141.058371,197.35661 138.430198,201.469763 C135.267249,206.414686 130.957046,210.006839 125.531583,212.246222 C121.559615,213.886913 118.126992,213.178537 115.80963,210.281049 C112.902642,206.647765 112.509559,202.315244 114.964044,198.905898 C116.284986,197.068689 117.807041,195.359446 119.370232,193.718755 C120.928853,192.082635 122.656591,190.60647 124.521451,188.860665 C123.415333,187.526176 122.2178,186.173405 121.129965,184.742942 C118.698334,181.530113 118.990861,179.01652 122.254366,176.658313 C124.398041,175.109025 126.742828,173.833948 128.996201,172.440046 C129.133323,172.636563 129.275015,172.833081 129.412137,173.029598 L129.412137,173.029598 L129.412137,173.029598 Z" id="Combined-Shape" fill="#3B4E31"></path>
                <path d="M206.457363,203.737938 C202.412262,200.790179 199.78866,200.630223 198.120342,203.152956 C196.982229,204.88048 197.471297,207.0376 199.263026,208.180143 C201.65352,209.702009 203.7652,208.431502 206.457363,203.737938 M222.436653,208.774265 C216.028482,214.989695 211.608581,215.199923 207.170397,207.215837 C205.75804,208.212134 204.464522,209.404948 202.95618,210.136175 C200.561114,211.292428 198.088347,212.462391 195.519594,213.042803 C192.630889,213.700907 190.546634,210.830841 192.086972,208.11616 C193.50847,205.620848 195.734418,203.564271 197.686122,201.384301 C198.188903,200.8176 199.084767,200.598231 199.614972,200.045241 C200.588539,199.026093 203.001887,199.314014 202.553955,197.033499 C202.000896,194.199994 199.582977,191.745813 197.11478,191.704682 C195.409896,191.67269 193.69587,192.102286 192.036693,192.321654 C193.193089,190.329061 200.232022,186.430706 202.348272,187.148223 C203.842902,187.650941 205.424377,188.921448 206.215114,190.292499 C208.747301,194.679862 210.904688,199.291163 213.258617,203.78821 C216.005628,209.034764 216.919775,209.505492 222.436653,208.774265 L222.436653,208.774265 L222.436653,208.774265 Z" id="Combined-Shape" fill="#3B4E31"></path>
                <path d="M302.980776,203.42351 C301.170765,202.678573 299.730983,201.892503 298.186075,201.499469 C296.2298,201.00132 294.767165,201.997617 294.003852,203.775413 C293.318242,205.370402 293.638193,206.860278 295.146536,207.920557 C296.85142,209.122512 298.483172,208.81631 299.83611,207.394987 C300.89652,206.279866 301.76496,204.972798 302.980776,203.42351 M299.132217,198.067272 C297.802133,191.614192 293.395944,191.234868 288.203589,192.331709 L288.162452,191.454236 C291.270552,189.991782 294.287237,188.250547 297.518747,187.167417 C299.571007,186.481892 301.157052,188.213986 302.112336,189.959791 C304.169167,193.71647 306.070593,197.559983 308.036009,201.366934 C308.721619,202.687713 309.366093,204.031343 310.106552,205.324701 C312.355353,209.273327 313.822559,209.88573 318.763524,208.679205 C316.199342,211.197368 313.868267,213.185392 310.485923,213.185392 C306.646505,213.180822 305.590665,209.684642 303.446991,207.175619 C301.659833,208.404995 300.046364,209.744055 298.231782,210.70836 C296.412629,211.686377 294.451784,212.632402 292.449802,212.934033 C291.211133,213.12141 289.373697,212.440455 288.573819,211.499 C287.901921,210.70379 287.810506,208.633503 288.39556,207.719469 C289.775922,205.553209 291.553938,203.569756 293.469076,201.846802 C295.137394,200.347786 297.217079,199.314928 299.132217,198.067272 L299.132217,198.067272 L299.132217,198.067272 Z" id="Combined-Shape" fill="#3B4E31"></path>
                <path d="M288.985185,198.527488 C285.273748,205.460435 280.460764,211.241699 271.959196,212.88239 C267.982657,213.650178 264.623167,212.804697 261.962999,209.838657 C259.17028,206.721801 258.589796,203.17078 260.057002,199.117039 C262.392648,192.691381 270.894215,186.407398 279.427778,187.687046 C278.07484,190.570823 276.39281,191.553409 273.60009,191.078111 C267.946091,190.113806 263.914703,195.342079 265.679006,201.360993 C267.585003,207.859774 274.857043,210.611016 280.277934,206.570986 C283.459166,204.199068 286.1559,201.178186 288.985185,198.527488" id="Fill-25" fill="#3B4E31"></path>
                <path d="M208.229437,175.404258 C210.076014,179.064964 210.11258,179.147227 206.789655,180.646242 C204.038073,181.889329 201.181363,182.908476 198.374932,184.023598 C198.265234,183.8088 198.155537,183.594002 198.045839,183.383774 C201.382476,180.769637 204.719112,178.1555 208.229437,175.404258" id="Fill-27" fill="#3B4E31"></path>
            </g>
        </g>
    </g>
</svg>